<svg width="18" height="18" viewBox="0 0 18 18" fill="none" xmlns="http://www.w3.org/2000/svg">
<path d="M0.5625 11.1375C0.711684 11.1375 0.854758 11.1968 0.960248 11.3023C1.06574 11.4078 1.125 11.5508 1.125 11.7V14.5125C1.125 14.8109 1.24353 15.097 1.4545 15.308C1.66548 15.519 1.95163 15.6375 2.25 15.6375H15.75C16.0484 15.6375 16.3345 15.519 16.5455 15.308C16.7565 15.097 16.875 14.8109 16.875 14.5125V11.7C16.875 11.5508 16.9343 11.4078 17.0398 11.3023C17.1452 11.1968 17.2883 11.1375 17.4375 11.1375C17.5867 11.1375 17.7298 11.1968 17.8352 11.3023C17.9407 11.4078 18 11.5508 18 11.7V14.5125C18 15.1092 17.7629 15.6815 17.341 16.1035C16.919 16.5255 16.3467 16.7625 15.75 16.7625H2.25C1.65326 16.7625 1.08097 16.5255 0.65901 16.1035C0.237053 15.6815 0 15.1092 0 14.5125V11.7C0 11.5508 0.0592632 11.4078 0.164752 11.3023C0.270242 11.1968 0.413316 11.1375 0.5625 11.1375Z" fill="#007AFF"/>
<path d="M8.53996 0.165256C8.59221 0.112872 8.65428 0.0713112 8.72262 0.0429539C8.79096 0.0145966 8.86422 0 8.93821 0C9.0122 0 9.08546 0.0145966 9.1538 0.0429539C9.22214 0.0713112 9.28421 0.112872 9.33646 0.165256L12.7115 3.54026C12.8171 3.64588 12.8764 3.78913 12.8764 3.93851C12.8764 4.08788 12.8171 4.23113 12.7115 4.33676C12.6058 4.44238 12.4626 4.50172 12.3132 4.50172C12.1638 4.50172 12.0206 4.44238 11.915 4.33676L9.50071 1.92138V11.8135C9.50071 11.9627 9.44145 12.1058 9.33596 12.2113C9.23047 12.3167 9.0874 12.376 8.93821 12.376C8.78903 12.376 8.64595 12.3167 8.54046 12.2113C8.43497 12.1058 8.37571 11.9627 8.37571 11.8135V1.92138L5.96146 4.33676C5.90916 4.38905 5.84707 4.43054 5.77874 4.45884C5.71041 4.48715 5.63717 4.50172 5.56321 4.50172C5.48925 4.50172 5.41601 4.48715 5.34768 4.45884C5.27935 4.43054 5.21726 4.38905 5.16496 4.33676C5.11266 4.28446 5.07118 4.22237 5.04287 4.15404C5.01457 4.08571 5 4.01247 5 3.93851C5 3.86454 5.01457 3.79131 5.04287 3.72297C5.07118 3.65464 5.11266 3.59255 5.16496 3.54026L8.53996 0.165256Z" fill="#007AFF"/>
</svg>
